<svg xmlns="http://www.w3.org/2000/svg" style="display:none">
  <symbol id="scissors" viewBox="0 0 24 24">
    <circle cx="6" cy="6" r="3" stroke="currentColor"/>
    <circle cx="6" cy="18" r="3" stroke="currentColor"/>
    <path d="M8.5 7.5L21 20M8.5 16.5L21 4" stroke="currentColor" stroke-linecap="round"/>
  </symbol>
  <symbol id="needle" viewBox="0 0 24 24">
    <path d="M4 20L20 4M16 4c2 0 4 2 4 4" stroke="currentColor" stroke-linecap="round"/>
    <circle cx="16" cy="4" r="1" fill="currentColor"/>
  </symbol>
  <symbol id="machine" viewBox="0 0 24 24">
    <rect x="3" y="6" width="18" height="12" rx="2" stroke="currentColor" fill="none"/>
    <circle cx="8" cy="12" r="2" stroke="currentColor"/>
    <path d="M12 10h6M12 14h6" stroke="currentColor" stroke-linecap="round"/>
  </symbol>
  <symbol id="ruler" viewBox="0 0 24 24">
    <rect x="3" y="7" width="18" height="10" rx="2" stroke="currentColor" fill="none"/>
    <path d="M7 7v4M11 7v4M15 7v4M19 7v4" stroke="currentColor"/>
  </symbol>
  <symbol id="check" viewBox="0 0 24 24">
    <path d="M4 12l5 5 11-11" stroke="currentColor" stroke-width="2" fill="none" stroke-linecap="round" stroke-linejoin="round"/>
  </symbol>
  <symbol id="star" viewBox="0 0 24 24">
    <path d="M12 3l2.9 5.9 6.5.9-4.7 4.6 1.1 6.4L12 18l-5.8 3.1 1.1-6.4L2.6 9.8l6.5-.9L12 3z" stroke="currentColor" fill="none"/>
  </symbol>
  <symbol id="pin" viewBox="0 0 24 24">
    <path d="M12 22s7-5.3 7-12A7 7 0 0 0 5 10c0 6.7 7 12 7 12z" stroke="currentColor" fill="none"/>
    <circle cx="12" cy="10" r="2" stroke="currentColor"/>
  </symbol>
  <symbol id="phone" viewBox="0 0 24 24">
    <path d="M22 16.9v2a2 2 0 0 1-2.2 2 19.8 19.8 0 0 1-8.6-3.1A19.3 19.3 0 0 1 4.2 9.8 19.8 19.8 0 0 1 1.1 1.2 2 2 0 0 1 3 1h2a2 2 0 0 1 2 1.7l.5 3a2 2 0 0 1-.5 1.7L6 8a16 16 0 0 0 6 6l.6-.9a2 2 0 0 1 1.7-.9l3 .5a2 2 0 0 1 1.7 2.2z" stroke="currentColor" fill="none"/>
  </symbol>
  <symbol id="instagram" viewBox="0 0 24 24">
    <rect x="3" y="3" width="18" height="18" rx="5" stroke="currentColor" fill="none"/>
    <circle cx="12" cy="12" r="4" stroke="currentColor" fill="none"/>
    <circle cx="17.5" cy="6.5" r="1" fill="currentColor"/>
  </symbol>
  <symbol id="whatsapp" viewBox="0 0 24 24">
    <path d="M3 20l1.4-4A8 8 0 1 1 12 20a8.4 8.4 0 0 1-3.9-1L3 20z" stroke="currentColor" fill="none"/>
    <path d="M8.5 9.5c0 3 3 5 4.5 5 .6 0 1.5-.4 1.7-1" stroke="currentColor" fill="none" stroke-linecap="round"/>
  </symbol>
</svg>
